# Blender v2.93.5 OBJ File: ''
# www.blender.org
o Cube_Cube.001
v -5.752985 -0.031786 30.648640
v -5.752985 21.243462 30.648640
v -5.752985 -0.031786 -30.648640
v -5.752985 2.839658 -30.648640
v 5.752985 -0.031786 30.648640
v 5.752985 21.243462 30.648640
v 5.752985 -0.031786 -30.648640
v 5.752985 2.839658 -30.648640
v 4.632728 -0.031786 -30.648640
v 3.482131 -0.031786 -30.648640
v 2.331534 -0.031786 -30.648640
v 1.180937 -0.031786 -30.648640
v 0.030340 -0.031786 -30.648640
v -1.120257 -0.031786 -30.648640
v -2.270854 -0.031786 -30.648640
v -3.421451 -0.031786 -30.648640
v -4.572048 -0.031786 -30.648640
v -4.572048 2.574275 -30.648640
v -3.421451 2.309236 -30.648640
v -2.270854 1.989915 -30.648640
v -1.120257 1.725429 -30.648640
v 0.030340 1.515118 -30.648640
v 1.180937 1.725429 -30.648640
v 2.331534 1.989915 -30.648640
v 3.482131 2.309236 -30.648640
v 4.632728 2.574275 -30.648640
v -4.572048 -0.031786 30.648640
v -3.421451 -0.031786 30.648640
v -2.270854 -0.031786 30.648640
v -1.120257 -0.031786 30.648640
v 0.030340 -0.031786 30.648640
v 1.180937 -0.031786 30.648640
v 2.331534 -0.031786 30.648640
v 3.482131 -0.031786 30.648640
v 4.632728 -0.031786 30.648640
v 4.632728 20.978077 30.648640
v 3.482131 20.713037 30.648640
v 2.331534 20.393717 30.648640
v 1.180937 20.129230 30.648640
v 0.030340 19.918919 30.648640
v -1.120257 20.129230 30.648640
v -2.270854 20.393717 30.648640
v -3.421451 20.713037 30.648640
v -4.572048 20.978077 30.648640
vt 0.375000 0.000000
vt 0.625000 0.250000
vt 0.375000 0.250000
vt 0.625000 0.475659
vt 0.375000 0.500000
vt 0.375000 0.475659
vt 0.625000 0.500000
vt 0.375000 0.750000
vt 0.625000 0.974341
vt 0.375000 1.000000
vt 0.375000 0.974341
vt 0.350659 0.750000
vt 0.350659 0.500000
vt 0.875000 0.500000
vt 0.849341 0.750000
vt 0.849341 0.500000
vt 0.649341 0.750000
vt 0.625000 0.750000
vt 0.649341 0.500000
vt 0.674341 0.750000
vt 0.674341 0.500000
vt 0.699341 0.750000
vt 0.699341 0.500000
vt 0.724341 0.750000
vt 0.724341 0.500000
vt 0.749341 0.750000
vt 0.774341 0.500000
vt 0.749341 0.500000
vt 0.799341 0.500000
vt 0.774341 0.750000
vt 0.824341 0.500000
vt 0.799341 0.750000
vt 0.824341 0.750000
vt 0.150659 0.500000
vt 0.125000 0.750000
vt 0.125000 0.500000
vt 0.175659 0.500000
vt 0.150659 0.750000
vt 0.200659 0.500000
vt 0.175659 0.750000
vt 0.225659 0.500000
vt 0.200659 0.750000
vt 0.250659 0.500000
vt 0.225659 0.750000
vt 0.275659 0.500000
vt 0.250659 0.750000
vt 0.300659 0.500000
vt 0.275659 0.750000
vt 0.325659 0.500000
vt 0.300659 0.750000
vt 0.325659 0.750000
vt 0.625000 0.774341
vt 0.375000 0.774341
vt 0.625000 0.799341
vt 0.375000 0.799341
vt 0.625000 0.824341
vt 0.375000 0.824341
vt 0.625000 0.849341
vt 0.375000 0.849341
vt 0.625000 0.874341
vt 0.375000 0.874341
vt 0.375000 0.899341
vt 0.625000 0.899341
vt 0.375000 0.924341
vt 0.625000 0.924341
vt 0.375000 0.949341
vt 0.625000 0.949341
vt 0.625000 0.275659
vt 0.375000 0.275659
vt 0.625000 0.300659
vt 0.375000 0.300659
vt 0.625000 0.325659
vt 0.375000 0.325659
vt 0.625000 0.350659
vt 0.375000 0.350659
vt 0.625000 0.375659
vt 0.375000 0.375659
vt 0.375000 0.400659
vt 0.625000 0.400659
vt 0.375000 0.425659
vt 0.625000 0.425659
vt 0.375000 0.450659
vt 0.625000 0.450659
vt 0.625000 0.000000
vt 0.625000 1.000000
vt 0.875000 0.750000
vn -1.0000 0.0000 0.0000
vn 0.0000 0.0000 -1.0000
vn 1.0000 0.0000 0.0000
vn 0.0000 0.0000 1.0000
vn 0.0000 -1.0000 0.0000
vn 0.2104 0.9363 -0.2811
vn -0.2213 0.9340 -0.2804
vn -0.2154 0.9353 -0.2808
vn -0.2569 0.9256 -0.2779
vn -0.2150 0.9354 -0.2808
vn -0.1724 0.9434 -0.2832
vn 0.1724 0.9434 -0.2832
vn 0.2150 0.9354 -0.2808
vn 0.2569 0.9256 -0.2779
vn 0.2154 0.9353 -0.2808
s off
f 1/1/1 4/2/1 3/3/1
f 26/4/2 7/5/2 9/6/2
f 8/7/3 5/8/3 7/5/3
f 44/9/4 1/10/4 27/11/4
f 7/5/5 35/12/5 9/13/5
f 4/14/6 44/15/6 18/16/6
f 8/7/7 36/17/7 6/18/7
f 26/19/8 37/20/8 36/17/8
f 25/21/9 38/22/9 37/20/9
f 24/23/10 39/24/10 38/22/10
f 23/25/11 40/26/11 39/24/11
f 21/27/12 40/26/12 22/28/12
f 20/29/13 41/30/13 21/27/13
f 19/31/14 42/32/14 20/29/14
f 18/16/15 43/33/15 19/31/15
f 17/34/5 1/35/5 3/36/5
f 16/37/5 27/38/5 17/34/5
f 15/39/5 28/40/5 16/37/5
f 14/41/5 29/42/5 15/39/5
f 13/43/5 30/44/5 14/41/5
f 12/45/5 31/46/5 13/43/5
f 11/47/5 32/48/5 12/45/5
f 10/49/5 33/50/5 11/47/5
f 9/13/5 34/51/5 10/49/5
f 5/8/4 36/52/4 35/53/4
f 35/53/4 37/54/4 34/55/4
f 34/55/4 38/56/4 33/57/4
f 33/57/4 39/58/4 32/59/4
f 32/59/4 40/60/4 31/61/4
f 40/60/4 30/62/4 31/61/4
f 41/63/4 29/64/4 30/62/4
f 42/65/4 28/66/4 29/64/4
f 43/67/4 27/11/4 28/66/4
f 3/3/2 18/68/2 17/69/2
f 17/69/2 19/70/2 16/71/2
f 16/71/2 20/72/2 15/73/2
f 15/73/2 21/74/2 14/75/2
f 14/75/2 22/76/2 13/77/2
f 22/76/2 12/78/2 13/77/2
f 23/79/2 11/80/2 12/78/2
f 24/81/2 10/82/2 11/80/2
f 25/83/2 9/6/2 10/82/2
f 1/1/1 2/84/1 4/2/1
f 26/4/2 8/7/2 7/5/2
f 8/7/3 6/18/3 5/8/3
f 44/9/4 2/85/4 1/10/4
f 7/5/5 5/8/5 35/12/5
f 4/14/6 2/86/6 44/15/6
f 8/7/7 26/19/7 36/17/7
f 26/19/8 25/21/8 37/20/8
f 25/21/9 24/23/9 38/22/9
f 24/23/10 23/25/10 39/24/10
f 23/25/11 22/28/11 40/26/11
f 21/27/12 41/30/12 40/26/12
f 20/29/13 42/32/13 41/30/13
f 19/31/14 43/33/14 42/32/14
f 18/16/15 44/15/15 43/33/15
f 17/34/5 27/38/5 1/35/5
f 16/37/5 28/40/5 27/38/5
f 15/39/5 29/42/5 28/40/5
f 14/41/5 30/44/5 29/42/5
f 13/43/5 31/46/5 30/44/5
f 12/45/5 32/48/5 31/46/5
f 11/47/5 33/50/5 32/48/5
f 10/49/5 34/51/5 33/50/5
f 9/13/5 35/12/5 34/51/5
f 5/8/4 6/18/4 36/52/4
f 35/53/4 36/52/4 37/54/4
f 34/55/4 37/54/4 38/56/4
f 33/57/4 38/56/4 39/58/4
f 32/59/4 39/58/4 40/60/4
f 40/60/4 41/63/4 30/62/4
f 41/63/4 42/65/4 29/64/4
f 42/65/4 43/67/4 28/66/4
f 43/67/4 44/9/4 27/11/4
f 3/3/2 4/2/2 18/68/2
f 17/69/2 18/68/2 19/70/2
f 16/71/2 19/70/2 20/72/2
f 15/73/2 20/72/2 21/74/2
f 14/75/2 21/74/2 22/76/2
f 22/76/2 23/79/2 12/78/2
f 23/79/2 24/81/2 11/80/2
f 24/81/2 25/83/2 10/82/2
f 25/83/2 26/4/2 9/6/2
