# Blender v2.93.6 OBJ File: ''
# www.blender.org
o Cylinder.002_Cylinder.010
v -0.621868 -0.075675 -0.297691
v -0.286996 2.021362 -0.642480
v -0.174405 -0.075675 -0.571903
v -0.809123 2.021362 -0.216577
v -0.696534 -0.075675 -0.146004
v -0.845492 2.021362 0.169985
v -0.732903 -0.075675 0.240566
v -0.742085 2.021362 0.396359
v -0.629494 -0.075675 0.466934
v -0.436313 2.021362 0.589352
v -0.323722 -0.075675 0.659929
v -0.061026 2.021362 0.585835
v 0.051563 -0.075675 0.656416
v 0.164485 2.021362 0.482811
v 0.277078 -0.075675 0.553392
v 0.475225 -0.075675 0.231184
v 0.502044 -0.075675 -0.049984
v 0.362640 2.021362 0.160603
v 0.395468 -0.075675 -0.283276
v 0.389451 2.021362 -0.120565
v -0.310220 4.957613 0.438262
v -0.020606 2.021362 -0.617076
v 0.091988 -0.075675 -0.546499
v 0.282881 2.021362 -0.353851
v -0.359767 4.957613 -0.014680
v -0.208793 7.776993 -0.032084
v -0.304591 4.957613 -0.126779
v -0.084267 4.957613 0.580888
v 0.193065 4.957613 0.578284
v 0.222934 4.957613 -0.310638
v 0.447205 4.957613 -0.116126
v 0.525957 4.957613 0.056275
v 0.359713 4.957613 0.502154
v 0.026075 4.957613 -0.329414
v 0.506141 4.957613 0.264052
v -0.734459 2.021362 -0.368269
v -0.386641 4.957613 0.270982
v 0.189464 7.776993 0.055690
v -0.073703 9.543246 0.072668
v 0.179962 7.776993 0.155322
v -0.103146 7.776993 0.307249
v -0.211493 7.776993 0.238859
v 0.109745 7.776993 0.269500
v -0.050235 7.776993 -0.129254
v -0.248138 7.776993 0.158647
v 0.029838 7.776993 0.306003
v 0.044159 7.776993 -0.120249
v -0.235250 7.776993 0.021663
v 0.151700 7.776993 -0.026976
v -0.087967 9.543246 -0.019347
v -0.142245 9.543246 -0.066422
v -0.115462 10.941373 0.076094
v -0.269917 9.543246 -0.021923
v -0.216591 9.543246 0.149345
v -0.271280 9.543246 0.114832
v -0.109142 9.543246 0.130291
v -0.189888 9.543246 -0.070965
v -0.289775 9.543246 0.074342
v -0.149475 9.543246 0.148718
v -0.068906 9.543246 0.022381
v -0.283270 9.543246 0.005207
v 0.019329 10.004109 1.242594
v 0.072212 11.958302 0.173010
v -0.753800 10.067487 1.124826
v -1.063754 10.070251 0.929310
v -1.294993 9.988694 0.235821
v -1.242524 9.920330 -0.175753
v -0.866755 9.813572 -0.615973
v -0.322446 9.731808 -0.776322
v 0.266569 9.695839 -0.605946
v 0.499933 9.711330 -0.343647
v 0.740422 9.799239 0.397817
v 0.563375 9.879029 0.798368
v 0.361331 2.066068 3.218006
v 0.073267 4.621080 -0.547023
v -0.480277 2.062832 3.103117
v -2.167104 2.012925 2.310728
v -2.993827 1.907894 0.879300
v -3.183693 1.828154 -0.169458
v -2.543612 1.690023 -1.902254
v -2.015731 1.634025 -2.581327
v -1.003469 1.585424 -3.122722
v -0.092897 1.567120 -3.280714
v 1.856371 1.586167 -2.865078
v 3.049700 1.689358 -1.425680
v 3.367823 1.747179 -0.649555
v 3.344862 1.804648 0.092448
v 2.728441 1.952417 1.951985
v 1.228378 2.040852 2.966753
v -1.493802 3.617451 -1.997926
v -0.096838 6.905146 0.182916
v -0.893140 3.668863 -2.319713
v 0.573274 3.817221 -2.597562
v 1.779108 3.974021 -2.052556
v 2.392296 4.068076 -1.457175
v 2.785516 4.175714 -0.023772
v 2.759554 4.204015 0.668595
v 2.354472 4.196963 1.499429
v 1.836426 4.164097 2.031934
v 0.375383 4.032965 2.679562
v -1.072442 3.857163 2.302199
v -1.641666 3.778663 1.945338
v -1.973272 3.719995 1.449946
v -2.441058 3.600961 -0.055074
v -1.939999 3.594282 -1.425043
v 1.802276 6.405581 -0.928429
v -0.183261 9.231518 0.112058
v 1.515499 6.208878 0.343459
v 1.149662 6.119168 0.830730
v -0.049612 6.012190 1.110625
v -0.739874 5.994853 0.960239
v -1.441978 6.054075 0.266091
v -1.651571 6.174769 -0.666512
v -1.296661 6.330529 -1.623196
v -0.826528 6.406483 -1.972478
v 0.454945 6.519224 -2.260484
v 1.112454 6.505448 -1.903935
vt 0.291979 0.500000
vt 0.150233 1.000000
vt 0.150233 0.500000
vt 0.336157 1.000000
vt 0.336157 0.500000
vt 0.437783 1.000000
vt 0.437783 0.500000
vt 0.500000 1.000000
vt 0.500000 0.500000
vt 0.592082 1.000000
vt 0.592082 0.500000
vt 0.688018 1.000000
vt 0.688018 0.500000
vt 0.750000 1.000000
vt 0.750000 0.500000
vt 0.846055 0.500000
vt 0.916667 0.500000
vt 0.846055 1.000000
vt 0.980786 0.500000
vt 0.916667 1.000000
vt 0.500000 1.000000
vt 0.083333 1.000000
vt 0.083333 0.500000
vt -0.016639 1.000000
vt -0.016639 0.500000
vt 0.966084 0.160746
vt 0.557952 0.136202
vt 0.944435 0.383411
vt 0.336157 1.000000
vt 0.291979 1.000000
vt 0.291979 1.000000
vt 0.592082 1.000000
vt 0.688018 1.000000
vt 0.083333 1.000000
vt -0.016639 1.000000
vt 0.980786 1.000000
vt 0.916667 1.000000
vt 0.750000 1.000000
vt 0.150233 1.000000
vt 0.846055 1.000000
vt 0.291979 1.000000
vt 0.437783 1.000000
vt 0.916667 1.000000
vt 0.846055 1.000000
vt 0.846055 1.000000
vt 0.592082 1.000000
vt 0.500000 1.000000
vt 0.750000 1.000000
vt 0.150233 1.000000
vt 0.437783 1.000000
vt 0.688018 1.000000
vt 0.083333 1.000000
vt 0.336157 1.000000
vt -0.016639 1.000000
vt -0.016639 1.000000
vt 0.083333 1.000000
vt -0.016639 1.000000
vt 0.291979 1.000000
vt 0.592082 1.000000
vt 0.500000 1.000000
vt 0.750000 1.000000
vt 0.150233 1.000000
vt 0.437783 1.000000
vt 0.688018 1.000000
vt 0.980786 1.000000
vt 0.916667 1.000000
vt 0.336157 1.000000
vt 0.846055 1.000000
vt 0.291979 1.000000
vt 0.500000 1.000000
vt 0.750000 1.000000
vt 0.150233 1.000000
vt 0.437783 1.000000
vt 0.688018 1.000000
vt 0.083333 1.000000
vt 0.980786 1.000000
vt 0.916667 1.000000
vt 0.336157 1.000000
vt 0.592082 1.000000
vt 0.250000 0.490000
vt 0.250000 0.250000
vt 0.413168 0.413339
vt 0.468312 0.349700
vt 0.471517 0.180721
vt 0.431380 0.092833
vt 0.317616 0.019722
vt 0.185889 0.019722
vt 0.067164 0.096021
vt 0.033621 0.169472
vt 0.031688 0.349700
vt 0.533621 0.169472
vt 0.971517 0.180721
vt 0.685889 0.019722
vt 0.098668 0.426999
vt 0.250000 0.490000
vt 0.250000 0.250000
vt 0.310373 0.477167
vt 0.428355 0.410591
vt 0.480567 0.302150
vt 0.488685 0.224913
vt 0.432977 0.102380
vt 0.391068 0.055836
vt 0.314798 0.021878
vt 0.247959 0.015245
vt 0.108932 0.055836
vt 0.030194 0.166809
vt 0.011315 0.224913
vt 0.016970 0.278721
vt 0.071645 0.410591
vt 0.516970 0.278721
vt 0.810373 0.477167
vt 0.747959 0.015245
vt 0.185814 0.476357
vt 0.250000 0.490000
vt 0.250000 0.250000
vt 0.310373 0.477167
vt 0.428355 0.410591
vt 0.480567 0.302150
vt 0.488685 0.224913
vt 0.432977 0.102380
vt 0.391068 0.055836
vt 0.314798 0.021878
vt 0.247959 0.015245
vt 0.108932 0.055836
vt 0.030194 0.166809
vt 0.011315 0.224913
vt 0.016970 0.278721
vt 0.071645 0.410591
vt 0.516970 0.278721
vt 0.810373 0.477167
vt 0.747959 0.015245
vt 0.185814 0.476357
vt 0.250000 0.490000
vt 0.250000 0.250000
vt 0.413168 0.413339
vt 0.468312 0.349700
vt 0.471517 0.180721
vt 0.431380 0.092833
vt 0.317616 0.019722
vt 0.185889 0.019722
vt 0.067164 0.096021
vt 0.033621 0.169472
vt 0.031688 0.349700
vt 0.533621 0.169472
vt 0.971517 0.180721
vt 0.685889 0.019722
vt 0.098668 0.426999
vt 0.980786 1.000000
vt 0.630000 0.457846
vt 0.777668 0.482587
vt 0.559477 0.387323
vt 0.870000 0.457846
vt 0.532081 0.193658
vt 0.990000 0.250000
vt 0.878030 0.052065
vt 0.750000 0.010000
vt 0.660407 0.034006
vt 0.598668 0.426999
vt 0.750000 0.490000
vt 0.913168 0.413339
vt 0.968312 0.349700
vt 0.931380 0.092833
vt 0.817616 0.019722
vt 0.567164 0.096021
vt 0.531688 0.349700
vt 0.685814 0.476357
vt 0.750000 0.490000
vt 0.928355 0.410591
vt 0.980567 0.302150
vt 0.988685 0.224913
vt 0.932977 0.102380
vt 0.891068 0.055836
vt 0.814798 0.021878
vt 0.608932 0.055836
vt 0.530194 0.166809
vt 0.511315 0.224913
vt 0.571645 0.410591
vt 0.685814 0.476357
vt 0.750000 0.490000
vt 0.928355 0.410591
vt 0.980567 0.302150
vt 0.988685 0.224913
vt 0.932977 0.102380
vt 0.891068 0.055836
vt 0.814798 0.021878
vt 0.608932 0.055836
vt 0.530194 0.166809
vt 0.511315 0.224913
vt 0.571645 0.410591
vt 0.598668 0.426999
vt 0.750000 0.490000
vt 0.913168 0.413339
vt 0.968312 0.349700
vt 0.931380 0.092833
vt 0.817616 0.019722
vt 0.567164 0.096021
vt 0.531688 0.349700
vn -0.5217 -0.0567 -0.8513
vn -0.8954 -0.0629 -0.4407
vn -0.8954 -0.0629 -0.4408
vn -0.9940 -0.0565 -0.0935
vn -0.9090 -0.0348 0.4152
vn -0.9090 -0.0348 0.4153
vn -0.5337 -0.0002 0.8456
vn 0.0094 0.0341 0.9994
vn 0.4150 0.0529 0.9083
vn 0.4149 0.0529 0.9083
vn 0.8501 0.0632 0.5228
vn 0.9939 0.0566 0.0948
vn 0.9090 0.0348 -0.4153
vn -0.5326 0.0663 0.8438
vn -0.5318 0.0780 0.8433
vn 0.0949 -0.0284 -0.9951
vn 0.6552 0.0098 -0.7554
vn -0.0000 -1.0000 -0.0000
vn -0.8963 0.0453 -0.4412
vn 0.0094 0.0018 1.0000
vn 0.4153 -0.0336 0.9091
vn 0.6550 0.0245 -0.7552
vn 0.9094 -0.0173 -0.4155
vn 0.9095 -0.0173 -0.4154
vn 0.8503 -0.0600 0.5229
vn 0.0945 0.0956 -0.9909
vn 0.9941 -0.0519 0.0948
vn -0.5170 0.1451 -0.8436
vn -0.8849 0.1654 -0.4355
vn -0.9833 0.1568 -0.0925
vn -0.9022 0.1268 0.4121
vn -0.9022 0.1268 0.4122
vn 0.9848 0.1458 0.0939
vn -0.5321 0.0783 0.8430
vn 0.8459 0.1179 0.5202
vn -0.5219 0.0463 -0.8517
vn -0.5220 0.0463 -0.8517
vn -0.9079 0.0611 0.4148
vn 0.4129 0.1112 0.9039
vn 0.4129 0.1111 0.9040
vn 0.4123 0.1223 0.9028
vn 0.0947 0.0730 -0.9928
vn 0.9043 0.1078 -0.4131
vn -0.9946 0.0451 -0.0936
vn 0.0093 0.0967 0.9953
vn 0.0093 0.0968 0.9953
vn 0.0093 0.0895 0.9959
vn 0.6524 0.0922 -0.7522
vn 0.6524 0.0920 -0.7522
vn 0.9885 0.1180 0.0943
vn 0.6538 0.0643 -0.7539
vn -0.8968 -0.0285 -0.4415
vn -0.8969 -0.0285 -0.4414
vn -0.5333 0.0413 0.8449
vn -0.5332 0.0413 0.8450
vn 0.8428 0.1453 0.5183
vn -0.5225 -0.0132 -0.8526
vn -0.9096 -0.0016 0.4155
vn 0.4124 0.1223 0.9027
vn 0.0949 0.0403 -0.9947
vn 0.9025 0.1242 -0.4123
vn -0.9952 -0.0279 -0.0936
vn 0.0093 0.0896 0.9959
vn 0.6524 0.0918 -0.7523
vn 0.9950 0.0295 0.0949
vn -0.8897 0.1290 -0.4379
vn -0.5319 0.0826 0.8428
vn 0.8516 0.0242 0.5237
vn -0.5189 0.1167 -0.8468
vn -0.9039 0.1122 0.4129
vn 0.4153 0.0371 0.9089
vn 0.0945 0.0992 -0.9906
vn 0.9086 0.0462 -0.4151
vn -0.9880 0.1233 -0.0930
vn 0.0093 0.0516 0.9986
vn -0.0935 0.4800 0.8723
vn -0.4421 0.5499 0.7087
vn -0.8017 0.5629 0.2011
vn -0.8086 0.5550 -0.1953
vn -0.5985 0.4940 -0.6307
vn -0.1994 0.4140 -0.8881
vn 0.2807 0.3339 -0.8998
vn 0.7081 0.2835 -0.6467
vn 0.9124 0.2485 -0.3254
vn -0.1035 -0.9832 0.1501
vn 0.8908 0.3103 0.3319
vn 0.6388 0.3560 0.6821
vn -0.0801 0.8219 0.5639
vn -0.2704 0.8072 0.5247
vn -0.5649 0.7800 0.2690
vn -0.6459 0.7612 0.0591
vn -0.6417 0.7086 -0.2935
vn -0.5362 0.6981 -0.4744
vn -0.3219 0.6763 -0.6625
vn -0.1145 0.6660 -0.7371
vn 0.1515 0.6547 -0.7406
vn 0.5332 0.6886 -0.4914
vn 0.6200 0.7217 -0.3079
vn 0.6562 0.7536 -0.0381
vn 0.6285 0.7636 0.1477
vn -0.0067 -0.9970 0.0770
vn 0.3653 0.8035 0.4700
vn 0.1811 0.8202 0.5427
vn -0.4115 0.6187 -0.6692
vn -0.2056 0.6298 -0.7490
vn 0.2275 0.6784 -0.6986
vn 0.4352 0.7053 -0.5596
vn 0.6595 0.7142 -0.2345
vn 0.6874 0.7262 -0.0039
vn 0.6247 0.7164 0.3106
vn 0.4913 0.6980 0.5210
vn 0.2551 0.6579 0.7086
vn -0.2687 0.6064 0.7484
vn -0.4831 0.5988 0.6388
vn -0.7079 0.5783 0.4054
vn -0.8050 0.5563 0.2062
vn 0.1089 -0.9930 0.0447
vn -0.7719 0.5682 -0.2851
vn -0.6467 0.5930 -0.4797
vn 0.8323 0.4879 0.2631
vn 0.6827 0.4290 0.5915
vn 0.1917 0.2980 0.9351
vn -0.2110 0.2816 0.9360
vn -0.6592 0.2947 0.6919
vn -0.8962 0.3671 0.2489
vn -0.8501 0.4692 -0.2390
vn -0.5459 0.5744 -0.6099
vn -0.2244 0.6112 -0.7590
vn 0.0554 -0.9885 -0.1404
vn 0.3689 0.6596 -0.6548
vn 0.6688 0.6206 -0.4094
vn -0.5324 0.0724 0.8434
s 1
f 1/1/1 2/2/1 3/3/1
f 4/4/2 1/1/3 5/5/3
f 6/6/4 5/5/4 7/7/4
f 8/8/5 7/7/6 9/9/6
f 10/10/7 9/9/7 11/11/7
f 12/12/8 11/11/8 13/13/8
f 14/14/9 13/13/10 15/15/10
f 16/16/11 14/14/11 15/15/11
f 17/17/12 18/18/12 16/16/12
f 19/19/13 20/20/13 17/17/13
f 10/10/14 21/21/15 8/8/14
f 3/3/16 22/22/16 23/23/16
f 23/23/17 24/24/17 19/25/17
f 13/26/18 5/27/18 16/28/18
f 25/29/19 26/30/19 27/31/19
f 12/12/20 28/32/20 10/10/20
f 14/14/21 29/33/21 12/12/21
f 24/24/22 30/34/22 31/35/22
f 20/20/23 31/36/24 32/37/24
f 18/18/25 33/38/25 14/14/25
f 22/22/26 34/39/26 30/34/26
f 18/18/27 32/37/27 35/40/27
f 2/2/28 27/31/28 34/39/28
f 4/4/29 27/31/29 36/41/29
f 6/6/30 25/29/30 4/4/30
f 8/8/31 37/42/32 6/6/31
f 38/43/33 39/44/33 40/45/33
f 21/21/15 41/46/34 42/47/34
f 33/38/35 40/45/35 43/48/35
f 27/31/36 44/49/37 34/39/36
f 37/42/38 42/47/38 45/50/38
f 29/33/39 43/48/40 46/51/41
f 34/39/42 47/52/42 30/34/42
f 31/36/43 38/43/43 32/37/43
f 25/29/44 45/50/44 48/53/44
f 28/32/45 46/51/46 41/46/47
f 30/34/48 49/54/49 31/35/48
f 32/37/50 40/45/50 35/40/50
f 50/55/51 51/56/51 52/57/51
f 48/53/52 53/58/53 26/30/52
f 42/47/54 54/59/55 55/60/55
f 43/48/56 39/44/56 56/61/56
f 26/30/57 57/62/57 44/49/57
f 45/50/58 55/60/58 58/63/58
f 46/51/41 56/61/59 59/64/59
f 44/49/60 51/56/60 47/52/60
f 49/65/61 60/66/61 38/43/61
f 48/53/62 58/63/62 61/67/62
f 41/46/47 59/64/63 54/59/63
f 47/52/49 50/55/64 49/54/49
f 39/44/65 60/66/65 52/68/65
f 53/58/66 61/67/66 52/69/66
f 55/60/67 54/59/67 52/70/67
f 56/61/68 39/44/68 52/71/68
f 57/62/69 53/58/69 52/72/69
f 58/63/70 55/60/70 52/73/70
f 59/64/71 56/61/71 52/74/71
f 51/56/72 57/62/72 52/75/72
f 60/66/73 50/76/73 52/77/73
f 61/67/74 58/63/74 52/78/74
f 54/59/75 59/64/75 52/79/75
f 62/80/76 63/81/76 64/82/76
f 64/82/77 63/81/77 65/83/77
f 65/83/78 63/81/78 66/84/78
f 66/84/79 63/81/79 67/85/79
f 67/85/80 63/81/80 68/86/80
f 68/86/81 63/81/81 69/87/81
f 69/87/82 63/81/82 70/88/82
f 70/88/83 63/81/83 71/89/83
f 71/89/84 63/81/84 72/90/84
f 71/91/85 66/92/85 69/93/85
f 72/90/86 63/81/86 73/94/86
f 73/94/87 63/81/87 62/80/87
f 74/95/88 75/96/88 76/97/88
f 76/97/89 75/96/89 77/98/89
f 77/98/90 75/96/90 78/99/90
f 78/99/91 75/96/91 79/100/91
f 79/100/92 75/96/92 80/101/92
f 80/101/93 75/96/93 81/102/93
f 81/102/94 75/96/94 82/103/94
f 82/103/95 75/96/95 83/104/95
f 83/104/96 75/96/96 84/105/96
f 84/105/97 75/96/97 85/106/97
f 85/106/98 75/96/98 86/107/98
f 86/107/99 75/96/99 87/108/99
f 87/108/100 75/96/100 88/109/100
f 87/110/101 76/111/101 83/112/101
f 88/109/102 75/96/102 89/113/102
f 89/113/103 75/96/103 74/95/103
f 90/114/104 91/115/104 92/116/104
f 92/116/105 91/115/105 93/117/105
f 93/117/106 91/115/106 94/118/106
f 94/118/107 91/115/107 95/119/107
f 95/119/108 91/115/108 96/120/108
f 96/120/109 91/115/109 97/121/109
f 97/121/110 91/115/110 98/122/110
f 98/122/111 91/115/111 99/123/111
f 99/123/112 91/115/112 100/124/112
f 100/124/113 91/115/113 101/125/113
f 101/125/114 91/115/114 102/126/114
f 102/126/115 91/115/115 103/127/115
f 103/127/116 91/115/116 104/128/116
f 103/129/117 92/130/117 99/131/117
f 104/128/118 91/115/118 105/132/118
f 105/132/119 91/115/119 90/114/119
f 106/133/120 107/134/120 108/135/120
f 108/135/121 107/134/121 109/136/121
f 109/136/122 107/134/122 110/137/122
f 110/137/123 107/134/123 111/138/123
f 111/138/124 107/134/124 112/139/124
f 112/139/125 107/134/125 113/140/125
f 113/140/126 107/134/126 114/141/126
f 114/141/127 107/134/127 115/142/127
f 115/142/128 107/134/128 116/143/128
f 115/144/129 110/145/129 113/146/129
f 116/143/130 107/134/130 117/147/130
f 117/147/131 107/134/131 106/133/131
f 1/1/1 36/41/1 2/2/1
f 4/4/2 36/41/2 1/1/3
f 6/6/4 4/4/4 5/5/4
f 8/8/5 6/6/5 7/7/6
f 10/10/7 8/8/7 9/9/7
f 12/12/8 10/10/8 11/11/8
f 14/14/9 12/12/9 13/13/10
f 16/16/11 18/18/11 14/14/11
f 17/17/12 20/20/12 18/18/12
f 19/19/13 24/148/13 20/20/13
f 10/10/14 28/32/132 21/21/15
f 3/3/16 2/2/16 22/22/16
f 23/23/17 22/22/17 24/24/17
f 23/149/18 19/150/18 3/151/18
f 19/150/18 17/152/18 16/28/18
f 19/150/18 5/27/18 1/153/18
f 16/28/18 15/154/18 13/26/18
f 19/150/18 16/28/18 5/27/18
f 13/26/18 11/155/18 5/27/18
f 11/155/18 9/156/18 7/157/18
f 7/157/18 5/27/18 11/155/18
f 1/153/18 3/151/18 19/150/18
f 25/29/19 48/53/19 26/30/19
f 12/12/20 29/33/20 28/32/20
f 14/14/21 33/38/21 29/33/21
f 24/24/22 22/22/22 30/34/22
f 20/20/23 24/148/23 31/36/24
f 18/18/25 35/40/25 33/38/25
f 22/22/26 2/2/26 34/39/26
f 18/18/27 20/20/27 32/37/27
f 2/2/28 36/41/28 27/31/28
f 4/4/29 25/29/29 27/31/29
f 6/6/30 37/42/30 25/29/30
f 8/8/31 21/21/32 37/42/32
f 38/43/33 60/66/33 39/44/33
f 21/21/15 28/32/132 41/46/34
f 33/38/35 35/40/35 40/45/35
f 27/31/36 26/30/37 44/49/37
f 37/42/38 21/21/38 42/47/38
f 29/33/39 33/38/39 43/48/40
f 34/39/42 44/49/42 47/52/42
f 31/36/43 49/65/43 38/43/43
f 25/29/44 37/42/44 45/50/44
f 28/32/45 29/33/45 46/51/46
f 30/34/48 47/52/49 49/54/49
f 32/37/50 38/43/50 40/45/50
f 48/53/52 61/67/53 53/58/53
f 42/47/54 41/46/54 54/59/55
f 43/48/56 40/45/56 39/44/56
f 26/30/57 53/58/57 57/62/57
f 45/50/58 42/47/58 55/60/58
f 46/51/41 43/48/40 56/61/59
f 44/49/60 57/62/60 51/56/60
f 49/65/61 50/76/61 60/66/61
f 48/53/62 45/50/62 58/63/62
f 41/46/47 46/51/46 59/64/63
f 47/52/49 51/56/64 50/55/64
f 73/158/85 62/159/85 64/160/85
f 64/160/85 65/161/85 66/92/85
f 66/92/85 67/162/85 68/163/85
f 68/163/85 69/93/85 66/92/85
f 69/93/85 70/164/85 71/91/85
f 71/91/85 72/165/85 73/158/85
f 73/158/85 64/160/85 71/91/85
f 64/160/85 66/92/85 71/91/85
f 89/166/101 74/167/101 76/111/101
f 76/111/101 77/168/101 78/169/101
f 78/169/101 79/170/101 80/171/101
f 80/171/101 81/172/101 82/173/101
f 82/173/101 83/112/101 80/171/101
f 83/112/101 84/174/101 85/175/101
f 80/171/101 83/112/101 76/111/101
f 85/175/101 86/176/101 87/110/101
f 87/110/101 88/177/101 89/166/101
f 89/166/101 76/111/101 87/110/101
f 76/111/101 78/169/101 80/171/101
f 87/110/101 83/112/101 85/175/101
f 105/178/117 90/179/117 92/130/117
f 92/130/117 93/180/117 94/181/117
f 94/181/117 95/182/117 96/183/117
f 96/183/117 97/184/117 98/185/117
f 98/185/117 99/131/117 96/183/117
f 99/131/117 100/186/117 101/187/117
f 96/183/117 99/131/117 92/130/117
f 101/187/117 102/188/117 103/129/117
f 103/129/117 104/189/117 105/178/117
f 105/178/117 92/130/117 103/129/117
f 92/130/117 94/181/117 96/183/117
f 103/129/117 99/131/117 101/187/117
f 117/190/129 106/191/129 108/192/129
f 108/192/129 109/193/129 110/145/129
f 110/145/129 111/194/129 112/195/129
f 112/195/129 113/146/129 110/145/129
f 113/146/129 114/196/129 115/144/129
f 115/144/129 116/197/129 117/190/129
f 117/190/129 108/192/129 115/144/129
f 108/192/129 110/145/129 115/144/129
